<?xml version="1.0" standalone="no"?>
<!DOCTYPE svg PUBLIC "-//W3C//DTD SVG 20010904//EN"
 "http://www.w3.org/TR/2001/REC-SVG-20010904/DTD/svg10.dtd">
<svg version="1.0" xmlns="http://www.w3.org/2000/svg"
 width="512.000000pt" height="512.000000pt" viewBox="0 0 512.000000 512.000000"
 preserveAspectRatio="xMidYMid meet">
<metadata>
Created by potrace 1.14, written by Peter Selinger 2001-2017
</metadata>
<g transform="translate(0.000000,512.000000) scale(0.100000,-0.100000)"
fill="#000000" stroke="none">
<path d="M2505 4300 c-57 -13 -106 -43 -144 -88 -95 -111 -85 -276 23 -368 56
-49 100 -66 171 -67 283 -4 372 372 120 502 -44 22 -123 32 -170 21z"/>
<path d="M1859 4025 c-1 -49 -1 -94 0 -98 1 -7 1 -327 0 -357 0 -8 0 -80 0
-160 1 -80 1 -302 1 -495 0 -192 0 -412 0 -487 l0 -138 100 0 100 0 0 808 -1
807 66 3 65 3 0 99 c0 73 -3 100 -12 101 -7 1 -82 2 -165 3 l-153 1 -1 -90z"/>
<path d="M1430 3411 c0 -157 0 -385 0 -506 0 -121 0 -309 0 -417 l0 -198 105
0 104 0 0 568 c0 312 0 583 0 603 l1 36 62 -1 63 -1 0 100 0 100 -168 1 -167
1 0 -286z"/>
<path d="M2290 3595 l0 -105 108 -1 c59 0 280 -2 492 -4 212 -3 433 -4 493 -5
l107 0 0 -63 0 -63 100 -2 100 -2 0 170 0 170 -217 1 c-120 0 -435 2 -700 4
l-483 4 0 -104z"/>
<path d="M2290 3170 c0 -97 1 -100 23 -101 12 0 376 -1 810 -1 l787 -1 0 -64
0 -64 103 3 102 3 0 160 -1 160 -912 2 -912 3 0 -100z"/>
<path d="M1030 2821 c-57 -12 -107 -40 -146 -83 -45 -50 -63 -93 -68 -161 -17
-232 263 -370 438 -216 121 107 121 296 -1 397 -65 55 -148 78 -223 63z"/>
<path d="M3060 2020 l0 -809 -62 -3 -63 -3 -3 -97 c-2 -74 0 -98 10 -99 7 -1
82 -2 166 -3 l153 -1 -1 95 c-1 119 -2 871 -1 925 0 22 0 69 0 105 0 53 1 158
2 205 0 6 0 44 0 85 0 41 0 82 0 90 1 8 0 60 -1 115 -1 55 -1 105 0 110 1 6 2
29 1 53 l-1 42 -100 0 -100 0 0 -810z"/>
<path d="M3483 2230 l2 -600 -62 0 c-35 0 -64 -3 -64 -7 -4 -29 -4 -193 1
-194 3 -1 78 -3 168 -4 l162 -2 0 106 c0 86 0 1149 0 1269 l0 32 -104 0 -105
0 2 -600z"/>
<path d="M3955 2812 c-59 -19 -135 -90 -160 -148 -9 -22 -17 -68 -17 -104 -1
-78 30 -149 87 -198 164 -144 424 -37 439 181 5 84 -18 142 -78 202 -77 75
-172 98 -271 67z"/>
<path d="M1005 2018 l2 -163 911 -2 912 -2 0 98 c0 70 -4 100 -12 103 -7 2
-372 3 -810 2 l-798 -1 0 63 0 64 -103 0 -103 0 1 -162z"/>
<path d="M1429 1742 c0 -18 0 -165 1 -264 l0 -57 700 0 700 -1 0 105 0 105
-600 0 -600 0 0 64 0 64 -100 0 c-87 1 -100 -2 -101 -16z"/>
<path d="M2503 1340 c-88 -18 -169 -95 -197 -190 -48 -161 72 -328 239 -333
79 -2 120 11 174 54 221 174 61 523 -216 469z"/>
</g>
</svg>
